<svg xmlns="http://www.w3.org/2000/svg" viewBox="0 0 320 320" shape-rendering="crispEdges">
  <rect width="320" height="320" fill="#130d12"/>
  <rect y="34" width="320" height="76" fill="#2f1f2b"/>
  <rect y="110" width="320" height="96" fill="#402018"/>
  <rect y="206" width="320" height="114" fill="#110d12"/>
  <rect x="28" y="42" width="42" height="42" fill="#f1ac58"/>
  <rect x="34" y="48" width="30" height="30" fill="#ffd9a0"/>
  <rect x="38" y="112" width="18" height="118" fill="#21181c"/>
  <rect x="30" y="92" width="8" height="28" fill="#2d211f"/>
  <rect x="56" y="100" width="8" height="24" fill="#2a1c1f"/>
  <rect x="108" y="92" width="20" height="136" fill="#20161a"/>
  <rect x="100" y="82" width="10" height="24" fill="#2a1d1e"/>
  <rect x="128" y="96" width="10" height="26" fill="#301f1f"/>
  <rect x="202" y="100" width="22" height="130" fill="#1c1519"/>
  <rect x="192" y="84" width="10" height="28" fill="#261d1f"/>
  <rect x="224" y="92" width="10" height="22" fill="#2c1d1f"/>
  <rect x="266" y="108" width="18" height="122" fill="#221519"/>
  <rect x="258" y="88" width="8" height="24" fill="#2c1e1f"/>
  <rect x="284" y="96" width="8" height="22" fill="#302120"/>
  <rect x="0" y="176" width="320" height="18" fill="#6d3520"/>
  <rect x="0" y="194" width="320" height="18" fill="#46231b"/>
  <rect x="0" y="212" width="320" height="22" fill="#1a1418"/>
  <rect x="64" y="206" width="22" height="10" fill="#f16d2d"/>
  <rect x="72" y="198" width="6" height="8" fill="#ffcc77"/>
  <rect x="150" y="212" width="18" height="8" fill="#e65a27"/>
  <rect x="156" y="204" width="6" height="8" fill="#ffca74"/>
  <rect x="242" y="208" width="24" height="10" fill="#ef7230"/>
  <rect x="250" y="200" width="8" height="8" fill="#ffd07e"/>
  <rect x="0" y="234" width="320" height="86" fill="#0a0a0f"/>
  <rect x="18" y="248" width="62" height="10" fill="#3a261f"/>
  <rect x="94" y="258" width="78" height="10" fill="#442b21"/>
  <rect x="206" y="246" width="84" height="12" fill="#37231d"/>
</svg>
