<svg xmlns="http://www.w3.org/2000/svg" viewBox="0 0 320 320" shape-rendering="crispEdges">
  <rect width="320" height="320" fill="#120d13"/>
  <rect y="22" width="320" height="84" fill="#2d2133"/>
  <rect y="106" width="320" height="88" fill="#4c2d27"/>
  <rect y="194" width="320" height="126" fill="#170f15"/>
  <rect x="34" y="36" width="46" height="30" fill="#e2c4a2"/>
  <rect x="40" y="42" width="34" height="18" fill="#fff0cd"/>
  <rect x="0" y="116" width="56" height="88" fill="#6c4032"/>
  <rect x="0" y="106" width="66" height="14" fill="#88513d"/>
  <rect x="54" y="126" width="38" height="78" fill="#4a2d27"/>
  <rect x="228" y="118" width="92" height="90" fill="#5c352f"/>
  <rect x="214" y="106" width="106" height="16" fill="#77453c"/>
  <rect x="196" y="130" width="28" height="78" fill="#412824"/>
  <rect x="56" y="194" width="208" height="126" fill="#28181d"/>
  <rect x="118" y="194" width="84" height="126" fill="#7e4c38"/>
  <rect x="126" y="202" width="68" height="118" fill="#a66545"/>
  <rect x="132" y="212" width="56" height="108" fill="#c47b52"/>
  <rect x="138" y="226" width="44" height="94" fill="#df9a67"/>
  <rect x="74" y="230" width="30" height="10" fill="#4d3028"/>
  <rect x="214" y="244" width="40" height="10" fill="#4b2d26"/>
  <rect x="28" y="264" width="42" height="12" fill="#302024"/>
  <rect x="252" y="272" width="34" height="10" fill="#342125"/>
</svg>
