<svg xmlns="http://www.w3.org/2000/svg" viewBox="0 0 320 320" shape-rendering="crispEdges">
  <rect width="320" height="320" fill="#08101a"/>
  <rect y="24" width="320" height="96" fill="#102233"/>
  <rect y="120" width="320" height="84" fill="#14322f"/>
  <rect y="204" width="320" height="116" fill="#09131d"/>
  <rect x="232" y="30" width="38" height="38" fill="#d8f1d2"/>
  <rect x="236" y="34" width="30" height="30" fill="#f5fff0"/>
  <rect x="42" y="86" width="14" height="54" fill="#1d3439"/>
  <rect x="52" y="72" width="20" height="16" fill="#365d59"/>
  <rect x="244" y="94" width="16" height="56" fill="#20333a"/>
  <rect x="228" y="78" width="48" height="20" fill="#416b60"/>
  <rect x="114" y="98" width="18" height="62" fill="#1f3936"/>
  <rect x="100" y="82" width="46" height="18" fill="#4f7d67"/>
  <rect x="0" y="178" width="320" height="12" fill="#295153"/>
  <rect x="0" y="190" width="320" height="16" fill="#19383f"/>
  <rect x="0" y="206" width="320" height="20" fill="#101f2a"/>
  <rect x="38" y="150" width="22" height="64" fill="#18282e"/>
  <rect x="62" y="160" width="18" height="54" fill="#152229"/>
  <rect x="78" y="170" width="10" height="46" fill="#4e7c56"/>
  <rect x="88" y="162" width="12" height="52" fill="#5f9663"/>
  <rect x="100" y="172" width="8" height="42" fill="#75b374"/>
  <rect x="140" y="152" width="18" height="70" fill="#18282e"/>
  <rect x="160" y="166" width="12" height="56" fill="#1c2d34"/>
  <rect x="172" y="170" width="10" height="48" fill="#547f5d"/>
  <rect x="182" y="162" width="12" height="54" fill="#679f6d"/>
  <rect x="194" y="176" width="10" height="40" fill="#78bb78"/>
  <rect x="254" y="154" width="20" height="72" fill="#18282e"/>
  <rect x="274" y="166" width="14" height="56" fill="#1a2a2f"/>
  <rect x="288" y="176" width="10" height="44" fill="#578563"/>
  <rect x="18" y="218" width="284" height="34" fill="#101a25"/>
  <rect x="30" y="226" width="30" height="10" fill="#9fe6c3"/>
  <rect x="92" y="238" width="36" height="12" fill="#7dc4b0"/>
  <rect x="208" y="228" width="42" height="14" fill="#9bd8db"/>
  <rect x="254" y="242" width="22" height="8" fill="#7ccdb2"/>
  <rect x="0" y="252" width="320" height="68" fill="#060b12"/>
  <rect x="18" y="260" width="54" height="8" fill="#2d4531"/>
  <rect x="104" y="270" width="82" height="10" fill="#365036"/>
  <rect x="214" y="264" width="64" height="8" fill="#31483a"/>
</svg>
